<svg width="165.582" height="29.22" viewBox="0 0 165.582 29.22" xmlns="http://www.w3.org/2000/svg"><g id="svgGroup" stroke-linecap="round" fill-rule="nonzero" font-size="9pt" stroke="#000000" stroke-width="0" fill="#000000" style="stroke:#000000;stroke-width:0;fill:#000000"><path d="M 114.6 10.059 L 114.6 11.72 A 7.836 7.836 0 0 1 121.387 8.009 A 6.733 6.733 0 0 1 125.342 9.278 A 6.203 6.203 0 0 1 127.539 12.11 Q 128.662 10.352 129.736 9.669 A 8.402 8.402 0 0 1 134.863 8.009 Q 138.086 8.009 139.941 10.499 A 8.249 8.249 0 0 1 141.553 15.675 L 141.553 27.198 A 1.777 1.777 0 0 1 141.04 28.468 A 1.713 1.713 0 0 1 139.746 29.005 Q 139.014 29.005 138.477 28.468 Q 137.939 27.93 137.939 27.198 L 137.939 16.407 A 6.455 6.455 0 0 0 137.036 12.623 A 3.637 3.637 0 0 0 133.887 11.378 Q 130.371 11.378 128.076 15.235 L 128.076 27.198 A 1.777 1.777 0 0 1 127.563 28.468 A 1.713 1.713 0 0 1 126.27 29.005 Q 125.537 29.005 125 28.468 Q 124.463 27.93 124.463 27.198 L 124.463 16.407 A 6.455 6.455 0 0 0 123.56 12.623 A 3.637 3.637 0 0 0 120.41 11.378 Q 116.895 11.378 114.6 15.235 L 114.6 27.198 Q 114.6 27.93 114.063 28.468 Q 113.525 29.005 112.793 29.005 Q 112.061 29.005 111.523 28.468 Q 110.986 27.93 110.986 27.198 L 110.986 10.059 A 1.862 1.862 0 0 1 111.499 8.765 Q 112.012 8.204 112.793 8.204 Q 113.525 8.204 114.063 8.741 Q 114.6 9.278 114.6 10.059 Z M 33.545 15.235 L 33.545 27.198 Q 33.545 27.93 33.008 28.468 Q 32.471 29.005 31.738 29.005 Q 31.006 29.005 30.469 28.468 Q 29.932 27.93 29.932 27.198 L 29.932 10.059 A 1.837 1.837 0 0 1 30.444 8.741 A 1.713 1.713 0 0 1 31.738 8.204 A 1.777 1.777 0 0 1 33.008 8.717 A 1.772 1.772 0 0 1 33.545 10.059 L 33.545 11.72 Q 35.156 10.059 36.328 9.327 Q 38.574 8.009 40.649 8.009 A 8.115 8.115 0 0 1 44.043 8.619 A 6.325 6.325 0 0 1 46.289 10.352 Q 48.145 12.55 48.145 15.821 L 48.145 27.198 Q 48.145 27.93 47.607 28.468 Q 47.07 29.005 46.338 29.005 Q 45.605 29.005 45.068 28.468 Q 44.531 27.93 44.531 27.198 L 44.531 16.212 Q 44.531 13.966 43.506 12.672 A 4.046 4.046 0 0 0 40.137 11.378 A 8.579 8.579 0 0 0 33.545 15.235 Z M 68.115 15.235 L 68.115 27.198 Q 68.115 27.93 67.578 28.468 Q 67.041 29.005 66.309 29.005 Q 65.576 29.005 65.039 28.468 Q 64.502 27.93 64.502 27.198 L 64.502 10.059 A 1.837 1.837 0 0 1 65.015 8.741 A 1.713 1.713 0 0 1 66.309 8.204 A 1.777 1.777 0 0 1 67.578 8.717 A 1.772 1.772 0 0 1 68.115 10.059 L 68.115 11.72 Q 69.727 10.059 70.898 9.327 Q 73.145 8.009 75.22 8.009 A 8.115 8.115 0 0 1 78.613 8.619 A 6.325 6.325 0 0 1 80.859 10.352 Q 82.715 12.55 82.715 15.821 L 82.715 27.198 Q 82.715 27.93 82.178 28.468 Q 81.641 29.005 80.908 29.005 Q 80.176 29.005 79.639 28.468 Q 79.102 27.93 79.102 27.198 L 79.102 16.212 Q 79.102 13.966 78.076 12.672 A 4.046 4.046 0 0 0 74.707 11.378 A 8.579 8.579 0 0 0 68.115 15.235 Z M 15.43 2.345 L 25.586 26.417 A 2.673 2.673 0 0 1 25.781 27.418 Q 25.781 27.93 25.317 28.468 Q 24.854 29.005 23.804 29.005 Q 22.754 29.005 22.266 27.882 L 19.678 21.68 L 6.055 21.68 L 3.516 27.882 Q 3.027 29.005 1.978 29.005 A 1.902 1.902 0 0 1 0.464 28.468 A 1.629 1.629 0 0 1 0 27.418 A 2.673 2.673 0 0 1 0.195 26.417 L 10.352 2.345 Q 11.035 0.684 12.695 0.684 L 13.086 0.684 A 2.444 2.444 0 0 1 15.43 2.345 Z M 7.471 18.36 L 18.311 18.36 L 12.891 5.323 L 7.471 18.36 Z M 163.77 19.923 L 150.146 19.923 A 6.72 6.72 0 0 0 152.222 24.195 A 6.82 6.82 0 0 0 157.007 25.782 A 12.512 12.512 0 0 0 162.207 24.805 A 3.108 3.108 0 0 1 163.428 24.439 A 1.24 1.24 0 0 1 163.484 24.438 A 1.355 1.355 0 0 1 164.429 24.854 A 1.323 1.323 0 0 1 164.893 25.831 A 1.561 1.561 0 0 1 164.038 27.345 Q 163.184 27.784 162.5 28.126 A 9.817 9.817 0 0 1 161.035 28.712 A 16.175 16.175 0 0 1 156.836 29.2 A 10.227 10.227 0 0 1 149.194 26.441 Q 146.484 23.682 146.484 18.604 A 11.514 11.514 0 0 1 148.779 11.28 A 8.746 8.746 0 0 1 156.055 8.009 A 8.825 8.825 0 0 1 163.135 11.036 A 10.459 10.459 0 0 1 165.576 18.116 A 1.777 1.777 0 0 1 165.063 19.386 A 1.713 1.713 0 0 1 163.77 19.923 Z M 150.146 16.944 L 161.963 16.944 Q 161.816 14.112 159.863 12.452 A 5.582 5.582 0 0 0 156.055 11.085 A 5.412 5.412 0 0 0 150.879 14.259 A 7.226 7.226 0 0 0 150.146 16.944 Z M 104.883 15.87 L 104.883 27.198 Q 104.883 27.93 104.321 28.468 Q 103.76 29.005 102.979 29.005 Q 102.246 29.005 101.709 28.468 Q 101.172 27.93 101.172 27.198 L 101.172 26.173 A 11.139 11.139 0 0 1 98.291 28.248 A 9.796 9.796 0 0 1 93.701 29.2 A 6.822 6.822 0 0 1 89.062 27.589 A 5.489 5.489 0 0 1 87.158 23.243 A 5.568 5.568 0 0 1 89.404 18.555 A 10.881 10.881 0 0 1 96.109 16.748 A 21.072 21.072 0 0 1 96.338 16.749 L 101.172 16.749 L 101.172 16.407 A 4.824 4.824 0 0 0 99.878 12.598 A 6.043 6.043 0 0 0 95.85 11.475 A 18.492 18.492 0 0 0 90.527 12.403 A 2.253 2.253 0 0 1 89.819 12.501 Q 89.404 12.501 88.965 12.086 Q 88.525 11.671 88.501 10.767 A 1.477 1.477 0 0 1 88.5 10.727 A 1.406 1.406 0 0 1 89.551 9.425 A 16.76 16.76 0 0 1 96.3 8.007 A 17.232 17.232 0 0 1 96.533 8.009 A 8.048 8.048 0 0 1 102.832 10.499 A 7.757 7.757 0 0 1 104.883 15.87 Z M 101.172 23.048 L 101.172 19.678 L 96.875 19.678 Q 94.043 19.678 92.432 20.387 A 2.462 2.462 0 0 0 90.82 22.803 A 3.292 3.292 0 0 0 94.942 25.978 A 10.951 10.951 0 0 0 95.068 25.977 A 7.111 7.111 0 0 0 98.56 25.074 A 9.502 9.502 0 0 0 101.172 23.048 Z M 58.008 10.059 L 58.008 27.198 A 1.825 1.825 0 0 1 57.52 28.468 Q 57.031 29.005 56.25 29.005 Q 55.469 29.005 54.932 28.468 Q 54.395 27.93 54.395 27.198 L 54.395 10.059 Q 54.395 9.229 54.932 8.717 A 1.837 1.837 0 0 1 56.25 8.204 Q 57.031 8.204 57.52 8.717 A 1.867 1.867 0 0 1 58.008 10.059 Z M 58.398 2.052 L 58.398 2.198 A 1.987 1.987 0 0 1 57.812 3.663 A 1.987 1.987 0 0 1 56.348 4.249 L 56.104 4.249 Q 55.225 4.249 54.663 3.663 Q 54.102 3.077 54.102 2.198 L 54.102 2.052 A 1.987 1.987 0 0 1 54.688 0.587 A 1.929 1.929 0 0 1 56.104 0.001 L 56.348 0.001 A 1.987 1.987 0 0 1 57.812 0.587 A 1.987 1.987 0 0 1 58.398 2.052 Z"/></g></svg>