<svg width="165" height="30" viewBox="0 0 165 30" fill="none" xmlns="http://www.w3.org/2000/svg">
<path d="M2.484 29C1.812 29 1.296 28.712 0.936 28.136C0.576 27.56 0.54 26.948 0.828 26.3L10.944 2.144C11.304 1.304 11.892 0.883999 12.708 0.883999C13.572 0.883999 14.16 1.304 14.472 2.144L24.624 26.372C24.888 27.044 24.84 27.656 24.48 28.208C24.144 28.736 23.628 29 22.932 29C22.572 29 22.224 28.904 21.888 28.712C21.576 28.496 21.348 28.208 21.204 27.848L12.276 5.672H13.284L4.212 27.848C4.044 28.232 3.792 28.52 3.456 28.712C3.144 28.904 2.82 29 2.484 29ZM4.392 22.808L5.832 19.712H19.944L21.384 22.808H4.392ZM45.1845 29.036C44.6565 29.036 44.2125 28.868 43.8525 28.532C43.5165 28.172 43.3485 27.728 43.3485 27.2V18.344C43.3485 16.976 43.0965 15.86 42.5925 14.996C42.0885 14.132 41.4045 13.496 40.5405 13.088C39.7005 12.656 38.7285 12.44 37.6245 12.44C36.6165 12.44 35.7045 12.644 34.8885 13.052C34.0725 13.46 33.4245 14.012 32.9445 14.708C32.4645 15.38 32.2245 16.16 32.2245 17.048H29.9565C29.9565 15.536 30.3165 14.192 31.0365 13.016C31.7805 11.816 32.7885 10.868 34.0605 10.172C35.3325 9.476 36.7605 9.128 38.3445 9.128C40.0005 9.128 41.4765 9.488 42.7725 10.208C44.0925 10.904 45.1245 11.936 45.8685 13.304C46.6365 14.672 47.0205 16.352 47.0205 18.344V27.2C47.0205 27.728 46.8405 28.172 46.4805 28.532C46.1445 28.868 45.7125 29.036 45.1845 29.036ZM30.3885 29.036C29.8605 29.036 29.4165 28.868 29.0565 28.532C28.7205 28.172 28.5525 27.728 28.5525 27.2V11.144C28.5525 10.592 28.7205 10.148 29.0565 9.812C29.4165 9.476 29.8605 9.308 30.3885 9.308C30.9405 9.308 31.3845 9.476 31.7205 9.812C32.0565 10.148 32.2245 10.592 32.2245 11.144V27.2C32.2245 27.728 32.0565 28.172 31.7205 28.532C31.3845 28.868 30.9405 29.036 30.3885 29.036ZM55.2876 29C54.7596 29 54.3156 28.832 53.9556 28.496C53.6196 28.136 53.4516 27.692 53.4516 27.164V11.144C53.4516 10.592 53.6196 10.148 53.9556 9.812C54.3156 9.476 54.7596 9.308 55.2876 9.308C55.8396 9.308 56.2836 9.476 56.6196 9.812C56.9556 10.148 57.1236 10.592 57.1236 11.144V27.164C57.1236 27.692 56.9556 28.136 56.6196 28.496C56.2836 28.832 55.8396 29 55.2876 29ZM55.2876 6.104C54.6396 6.104 54.0756 5.876 53.5956 5.42C53.1396 4.94 52.9116 4.376 52.9116 3.728C52.9116 3.08 53.1396 2.528 53.5956 2.072C54.0756 1.592 54.6396 1.352 55.2876 1.352C55.9356 1.352 56.4876 1.592 56.9436 2.072C57.4236 2.528 57.6636 3.08 57.6636 3.728C57.6636 4.376 57.4236 4.94 56.9436 5.42C56.4876 5.876 55.9356 6.104 55.2876 6.104ZM80.5868 29.036C80.0588 29.036 79.6148 28.868 79.2548 28.532C78.9188 28.172 78.7508 27.728 78.7508 27.2V18.344C78.7508 16.976 78.4988 15.86 77.9948 14.996C77.4908 14.132 76.8068 13.496 75.9428 13.088C75.1028 12.656 74.1308 12.44 73.0268 12.44C72.0188 12.44 71.1068 12.644 70.2908 13.052C69.4748 13.46 68.8268 14.012 68.3468 14.708C67.8668 15.38 67.6268 16.16 67.6268 17.048H65.3588C65.3588 15.536 65.7188 14.192 66.4388 13.016C67.1828 11.816 68.1908 10.868 69.4628 10.172C70.7348 9.476 72.1628 9.128 73.7468 9.128C75.4028 9.128 76.8788 9.488 78.1748 10.208C79.4948 10.904 80.5268 11.936 81.2708 13.304C82.0388 14.672 82.4228 16.352 82.4228 18.344V27.2C82.4228 27.728 82.2428 28.172 81.8828 28.532C81.5468 28.868 81.1148 29.036 80.5868 29.036ZM65.7908 29.036C65.2628 29.036 64.8188 28.868 64.4588 28.532C64.1228 28.172 63.9548 27.728 63.9548 27.2V11.144C63.9548 10.592 64.1228 10.148 64.4588 9.812C64.8188 9.476 65.2628 9.308 65.7908 9.308C66.3428 9.308 66.7868 9.476 67.1228 9.812C67.4588 10.148 67.6268 10.592 67.6268 11.144V27.2C67.6268 27.728 67.4588 28.172 67.1228 28.532C66.7868 28.868 66.3428 29.036 65.7908 29.036ZM96.7019 29.144C94.9499 29.144 93.3779 28.712 91.9859 27.848C90.5939 26.96 89.4899 25.772 88.6739 24.284C87.8819 22.772 87.4859 21.068 87.4859 19.172C87.4859 17.276 87.9179 15.572 88.7819 14.06C89.6699 12.548 90.8579 11.36 92.3459 10.496C93.8579 9.608 95.5499 9.164 97.4219 9.164C99.2939 9.164 100.974 9.608 102.462 10.496C103.95 11.36 105.126 12.548 105.99 14.06C106.878 15.572 107.322 17.276 107.322 19.172H105.918C105.918 21.068 105.51 22.772 104.694 24.284C103.902 25.772 102.81 26.96 101.418 27.848C100.026 28.712 98.4539 29.144 96.7019 29.144ZM97.4219 25.904C98.6459 25.904 99.7379 25.616 100.698 25.04C101.658 24.44 102.414 23.636 102.966 22.628C103.518 21.596 103.794 20.444 103.794 19.172C103.794 17.876 103.518 16.724 102.966 15.716C102.414 14.684 101.658 13.88 100.698 13.304C99.7379 12.704 98.6459 12.404 97.4219 12.404C96.2219 12.404 95.1299 12.704 94.1459 13.304C93.1859 13.88 92.4179 14.684 91.8419 15.716C91.2899 16.724 91.0139 17.876 91.0139 19.172C91.0139 20.444 91.2899 21.596 91.8419 22.628C92.4179 23.636 93.1859 24.44 94.1459 25.04C95.1299 25.616 96.2219 25.904 97.4219 25.904ZM105.486 29.036C104.958 29.036 104.514 28.868 104.154 28.532C103.818 28.172 103.65 27.728 103.65 27.2V21.692L104.334 17.876L107.322 19.172V27.2C107.322 27.728 107.142 28.172 106.782 28.532C106.446 28.868 106.014 29.036 105.486 29.036ZM138.635 29.036C138.107 29.036 137.663 28.868 137.303 28.532C136.967 28.172 136.799 27.728 136.799 27.2V16.904C136.799 15.392 136.427 14.276 135.683 13.556C134.939 12.812 133.967 12.44 132.767 12.44C131.519 12.44 130.487 12.872 129.671 13.736C128.879 14.6 128.483 15.704 128.483 17.048H125.495C125.495 15.488 125.831 14.12 126.503 12.944C127.175 11.744 128.111 10.808 129.311 10.136C130.535 9.464 131.927 9.128 133.487 9.128C134.855 9.128 136.067 9.428 137.123 10.028C138.179 10.628 138.995 11.516 139.571 12.692C140.171 13.844 140.471 15.248 140.471 16.904V27.2C140.471 27.728 140.303 28.172 139.967 28.532C139.631 28.868 139.187 29.036 138.635 29.036ZM114.623 29.036C114.095 29.036 113.651 28.868 113.291 28.532C112.955 28.172 112.787 27.728 112.787 27.2V11.18C112.787 10.628 112.955 10.184 113.291 9.848C113.651 9.512 114.095 9.344 114.623 9.344C115.175 9.344 115.619 9.512 115.955 9.848C116.291 10.184 116.459 10.628 116.459 11.18V27.2C116.459 27.728 116.291 28.172 115.955 28.532C115.619 28.868 115.175 29.036 114.623 29.036ZM126.647 29.036C126.119 29.036 125.675 28.868 125.315 28.532C124.979 28.172 124.811 27.728 124.811 27.2V16.904C124.811 15.392 124.439 14.276 123.695 13.556C122.951 12.812 121.979 12.44 120.779 12.44C119.531 12.44 118.499 12.872 117.683 13.736C116.867 14.6 116.459 15.704 116.459 17.048H114.191C114.191 15.488 114.503 14.12 115.127 12.944C115.751 11.744 116.615 10.808 117.719 10.136C118.823 9.464 120.083 9.128 121.499 9.128C122.867 9.128 124.079 9.428 125.135 10.028C126.191 10.628 127.007 11.516 127.583 12.692C128.183 13.844 128.483 15.248 128.483 16.904V27.2C128.483 27.728 128.315 28.172 127.979 28.532C127.643 28.868 127.199 29.036 126.647 29.036ZM155.824 29.144C153.832 29.144 152.056 28.724 150.496 27.884C148.96 27.02 147.748 25.844 146.86 24.356C145.996 22.844 145.564 21.116 145.564 19.172C145.564 17.204 145.972 15.476 146.788 13.988C147.628 12.476 148.78 11.3 150.244 10.46C151.708 9.596 153.388 9.164 155.284 9.164C157.156 9.164 158.764 9.584 160.108 10.424C161.452 11.24 162.472 12.38 163.168 13.844C163.888 15.284 164.248 16.952 164.248 18.848C164.248 19.304 164.092 19.688 163.78 20C163.468 20.288 163.072 20.432 162.592 20.432H148.084V17.552H162.484L161.008 18.56C160.984 17.36 160.744 16.292 160.288 15.356C159.832 14.396 159.184 13.64 158.344 13.088C157.504 12.536 156.484 12.26 155.284 12.26C153.916 12.26 152.74 12.56 151.756 13.16C150.796 13.76 150.064 14.588 149.56 15.644C149.056 16.676 148.804 17.852 148.804 19.172C148.804 20.492 149.104 21.668 149.704 22.7C150.304 23.732 151.132 24.548 152.188 25.148C153.244 25.748 154.456 26.048 155.824 26.048C156.568 26.048 157.324 25.916 158.092 25.652C158.884 25.364 159.52 25.04 160 24.68C160.36 24.416 160.744 24.284 161.152 24.284C161.584 24.26 161.956 24.38 162.268 24.644C162.676 25.004 162.892 25.4 162.916 25.832C162.94 26.264 162.748 26.636 162.34 26.948C161.524 27.596 160.504 28.124 159.28 28.532C158.08 28.94 156.928 29.144 155.824 29.144Z"/>
</svg>
